# xmcd CD database file
#
# Track frame offsets:
#	150
#	3915
#	27200
#	56112
#	80500
#	117825
#	157725
#	192600
#	213975
#	239610
#
# Disc length: 3577 seconds
#
# Revision: 0
# Processed by: cddbd v1.5.2PL0 Copyright (c) Steve Scherf et al.
# Submitted via: CDex 1.51
#
DISCID=7e0df70a
DTITLE=Djabe - Message From The Road [CD 2)
DYEAR=2007
DGENRE=Jazz
TTITLE0=Munich Intro
TTITLE1=Sheafs Are Dancing
TTITLE2=Reproach
TTITLE3=House On The Hill
TTITLE4=City Of Habi
TTITLE5=Behind The Veil
TTITLE6=Clouds Dance (Standard)
TTITLE7=Camel Ride
TTITLE8=Shepherd's Song
TTITLE9=Distant Dance
EXTD=YEAR: 2007
EXTT0=
EXTT1=
EXTT2=
EXTT3=
EXTT4=
EXTT5=
EXTT6=
EXTT7=
EXTT8=
EXTT9=
PLAYORDER=
